<svg preserveAspectRatio="none" width="100%" height="100%" overflow="visible" style="display: block;" viewBox="0 0 29.7188 29.6094" fill="none" xmlns="http://www.w3.org/2000/svg">
<g id="Group 4">
<path id="Vector" d="M14.8591 0C6.65272 0 0 6.65272 0 14.8591C0 21.8274 4.79771 27.6748 11.2697 29.2808V19.4H8.20579V14.8591H11.2697V12.9025C11.2697 7.84501 13.5586 5.50084 18.524 5.50084C19.4654 5.50084 21.0898 5.68569 21.7543 5.86994V9.98591C21.4036 9.94906 20.7944 9.93064 20.0378 9.93064C17.6015 9.93064 16.66 10.8537 16.66 13.2531V14.8591H21.5136L20.6797 19.4H16.66V29.6094C24.0177 28.7209 29.7188 22.4563 29.7188 14.8591C29.7182 6.65272 23.0655 0 14.8591 0Z" fill="var(--fill-0, white)"/>
</g>
</svg>
