<svg preserveAspectRatio="none" width="100%" height="100%" overflow="visible" style="display: block;" viewBox="0 0 30.0004 15.0064" fill="none" xmlns="http://www.w3.org/2000/svg">
<g id="Group">
<path id="Vector" d="M27.9297 13.9396L24.1586 13.9467L24.1436 14.9454L22.0862 14.9379L22.087 0.906914L30.0004 0.902761V14.9363L27.9496 14.9512L27.9297 13.9401V13.9396ZM27.9442 6.45803L27.9334 2.815L24.1457 2.81874L24.1478 6.46508L27.9446 6.45803H27.9442ZM27.9417 12.0133V8.37151L24.1532 8.3711L24.1461 12.0291L27.9417 12.0133Z" fill="var(--fill-0, #D6D6D6)"/>
<path id="Vector_2" d="M18.1886 10.8032C18.9732 10.9071 19.6566 10.8352 19.6728 10.192C19.7061 8.86567 19.2154 7.65437 18.3301 6.63742L19.441 2.44169L18.1311 2.43837L18.1224 8.03848L18.1232 15.0064H16.1494L16.1486 0.664406L21.4918 0.667313L21.4972 2.17842L20.3326 6.38079C21.4785 7.77023 21.8801 9.61561 21.5888 11.3377C21.3632 12.6711 19.9055 13.0734 18.5515 13.0327C18.4812 12.2541 18.3825 11.5511 18.1886 10.8028V10.8032Z" fill="var(--fill-0, #D6D6D6)"/>
<path id="Vector_3" d="M9.60666 7.20631C8.15234 7.86117 6.66681 8.32417 5.08845 8.65845C4.97981 8.68129 4.88075 8.77348 4.75505 8.74234C4.64599 8.71534 4.62227 8.57914 4.55484 8.44917L3.82601 7.04602C5.19376 6.8168 6.52487 6.55644 7.89469 6.06935C7.35068 5.56564 6.89532 5.11302 6.47451 4.579C6.06743 5.04782 5.70572 5.44315 5.25869 5.87376C4.86285 5.39664 4.43996 4.93487 3.9205 4.4536C5.14006 3.14347 6.17815 1.71666 6.90281 0L9.05473 0.316009L8.51238 1.53021L14.1732 1.53478L14.1848 3.26805C13.4943 4.35892 12.6397 5.25877 11.5763 6.04443C12.7763 6.47879 13.9242 6.66939 15.118 6.86746C14.8479 7.53478 14.6306 8.07461 14.4379 8.74732C12.7738 8.47948 11.1863 8.01896 9.60624 7.20465L9.60666 7.20631ZM11.5484 3.29006L7.61457 3.28632C8.19188 4.06616 8.83455 4.69112 9.64662 5.20271C10.4071 4.69569 11.0797 4.09108 11.5484 3.29006Z" fill="var(--fill-0, #D6D6D6)"/>
<path id="Vector_4" d="M11.7024 14.3391L7.42185 14.3354L7.41686 14.9861L5.24579 14.9961L5.24329 8.79549L13.8939 8.79383V14.9529L11.727 14.9574L11.7024 14.3395V14.3391ZM11.7145 12.4464L11.6778 10.6745L7.41103 10.689L7.42726 12.4526L11.7145 12.446V12.4464Z" fill="var(--fill-0, #D6D6D6)"/>
<path id="Vector_5" d="M2.28345 14.8515L0.157752 14.0725C0.941935 12.1233 1.59168 10.2256 2.1232 8.21206C2.75671 8.56378 3.39563 8.79009 4.10406 9.00602L2.28387 14.8515H2.28345Z" fill="var(--fill-0, #D6D6D6)"/>
<path id="Vector_6" d="M2.59646 7.77853C1.76275 6.97003 0.941935 6.30355 0 5.57395L1.31655 4.13717C2.29095 4.79867 3.16087 5.46889 4.01956 6.18977L2.59646 7.77853Z" fill="var(--fill-0, #D6D6D6)"/>
<path id="Vector_7" d="M3.04724 3.80788C2.21519 3.05751 1.35317 2.38356 0.490323 1.69423L1.84891 0.213855C2.76379 0.871617 3.61374 1.47124 4.45036 2.19379L3.04683 3.80829L3.04724 3.80788Z" fill="var(--fill-0, #D6D6D6)"/>
</g>
</svg>
